<?xml version="1.0" encoding="UTF-8"?>
<svg width="100px" height="100px" viewBox="0 0 100 100" version="1.1" xmlns="http://www.w3.org/2000/svg" xmlns:xlink="http://www.w3.org/1999/xlink">
    <!-- Generator: Sketch 40 (33762) - http://www.bohemiancoding.com/sketch -->
    <title>Artboard</title>
    <desc>Created with Sketch.</desc>
    <defs>
        <circle id="path-1" cx="50" cy="50" r="50"></circle>
        <mask id="mask-2" maskContentUnits="userSpaceOnUse" maskUnits="objectBoundingBox" x="0" y="0" width="100" height="100" fill="white">
            <use xlink:href="#path-1"></use>
        </mask>
    </defs>
    <g id="Page-1" stroke="none" stroke-width="1" fill="none" fill-rule="evenodd">
        <g id="Artboard">
            <g id="Group-2">
                <use id="Oval" stroke="#FFFFFF" mask="url(#mask-2)" stroke-width="2" xlink:href="#path-1"></use>
                <g id="day" transform="translate(10.000000, 10.000000)">
                    <g id="Page-1">
                        <g id="ic_wb_sunny_black_24px">
                            <g id="Group">
                                <polygon id="Shape" points="0 0 80 0 80 80 0 80"></polygon>
                                <path d="M22.5333333,17.6333333 L16.5333333,11.6666667 L11.8333333,16.3666667 L17.8,22.3333333 L22.5333333,17.6333333 L22.5333333,17.6333333 L22.5333333,17.6333333 Z M13.3333333,36.5 L3.33333333,36.5 L3.33333333,43.1666667 L13.3333333,43.1666667 L13.3333333,36.5 L13.3333333,36.5 L13.3333333,36.5 Z M43.3333333,3.33333333 L36.6666667,3.33333333 L36.6666667,13.1666667 L43.3333333,13.1666667 L43.3333333,3.33333333 L43.3333333,3.33333333 L43.3333333,3.33333333 Z M68.1666667,16.3666667 L63.4666667,11.6666667 L57.5,17.6333333 L62.2,22.3333333 L68.1666667,16.3666667 L68.1666667,16.3666667 L68.1666667,16.3666667 Z M57.4666667,62.0333333 L63.4333333,68.0333333 L68.1333333,63.3333333 L62.1333333,57.3666667 L57.4666667,62.0333333 L57.4666667,62.0333333 L57.4666667,62.0333333 Z M66.6666667,36.5 L66.6666667,43.1666667 L76.6666667,43.1666667 L76.6666667,36.5 L66.6666667,36.5 L66.6666667,36.5 L66.6666667,36.5 Z M40,19.8333333 C28.9666667,19.8333333 20,28.8 20,39.8333333 C20,50.8666667 28.9666667,59.8333333 40,59.8333333 C51.0333333,59.8333333 60,50.8666667 60,39.8333333 C60,28.8 51.0333333,19.8333333 40,19.8333333 L40,19.8333333 L40,19.8333333 Z M36.6666667,76.3333333 L43.3333333,76.3333333 L43.3333333,66.5 L36.6666667,66.5 L36.6666667,76.3333333 L36.6666667,76.3333333 L36.6666667,76.3333333 Z M11.8333333,63.3 L16.5333333,68 L22.5,62 L17.8,57.3 L11.8333333,63.3 L11.8333333,63.3 L11.8333333,63.3 Z" id="Shape" fill="#FFBD21"></path>
                            </g>
                        </g>
                    </g>
                </g>
            </g>
        </g>
    </g>
</svg>