<svg xmlns="http://www.w3.org/2000/svg" width="970" height="90" viewBox="0 0 970 90">
  <g fill="none" fill-rule="evenodd" stroke="#979797" stroke-width="10" transform="translate(4 5)">
    <path d="M161.748797,41 C143.555959,16.1431615 114.163198,0 81,0 C47.8368021,0 18.4440415,16.1431615 0.25120283,41"/>
    <path d="M321.748797,80 C303.555959,55.1431615 274.163198,39 241,39 C207.836802,39 178.444041,55.1431615 160.251203,80" transform="matrix(1 0 0 -1 0 119)"/>
    <path d="M481.748797,41 C463.555959,16.1431615 434.163198,0 401,0 C367.836802,0 338.444041,16.1431615 320.251203,41"/>
    <path d="M641.748797,80 C623.555959,55.1431615 594.163198,39 561,39 C527.836802,39 498.444041,55.1431615 480.251203,80" transform="matrix(1 0 0 -1 0 119)"/>
    <path d="M801.748797,41 C783.555959,16.1431615 754.163198,0 721,0 C687.836802,0 658.444041,16.1431615 640.251203,41"/>
    <path d="M961.748797,80 C943.555959,55.1431615 914.163198,39 881,39 C847.836802,39 818.444041,55.1431615 800.251203,80" transform="matrix(1 0 0 -1 0 119)"/>
  </g>
</svg>
